# ProBuilder 5.0.3
# https://unity3d.com/unity/features/worldbuilding/probuilder
# 29-08-2021 04:02:37

mtllib ./Button.mtl
o Button

g Cube
v 1.957652 0 0
v 0 0 0
v 1.957652 0.3795912 0
v 0 0.3795912 0
v 0 0 -1.953403
v 0 0.3795912 -1.953403
v 1.957652 0 -1.953403
v 1.957652 0.3795912 -1.953403
v 1.655738 0.5480039 -0.301259
v 0.3019141 0.5480039 -0.301259
v 1.655738 0.5480039 -1.652144
v 0.3019141 0.5480039 -1.652144

vt 0.6990852 0.3912356
vt 0.286143 0.3912356
vt 0.6990852 0.4713057
vt 0.286143 0.4713057
vt 0.49428 0.1343358
vt 0.2195826 0.1343358
vt 0.49428 0.1877158
vt 0.2195826 0.1877158
vt 0.6325294 0.03616464
vt 0.1917507 0.03616464
vt 0.6325294 0.1216322
vt 0.1917507 0.1216322
vt 0.7643282 0.3334409
vt 0.51288 0.3334409
vt 0.7643282 0.3823031
vt 0.51288 0.3823031
vt 0.4954782 0.7544351
vt 0.7412801 0.7544351
vt 0.4954782 0.5091667
vt 0.7412801 0.5091667
vt 0.2798638 0.5403881
vt 0.2253783 0.5403881
vt 0.2798638 0.5947553
vt 0.2253783 0.5947553
vt 0.07770985 0.9257004
vt 0.934183 0.9257004
vt 0.2097973 0.7747027
vt 0.8020955 0.7747027
vt 0.06587487 0.07199764
vt 0.06587487 0.8706946
vt 0.2072265 0.1951748
vt 0.2072265 0.7475175
vt 0.956044 0.8544851
vt 0.956044 0.1273239
vt 0.8273524 0.7423404
vt 0.8273524 0.2394686
vt 0.7622004 0.2313955
vt 0.2903816 0.2313955
vt 0.6894353 0.3145779
vt 0.3631467 0.3145779

vn 0 0 1
vn -1 0 0
vn 0 0 -1
vn 1 0 0
vn 0 1 0
vn 0 -1 0
vn 0 0.8728669 0.4879584
vn 0.4871512 0.8733177 0
vn -0.4871511 0.8733177 0
vn 0 0.8728669 -0.4879584

usemtl MapsMaterial
f 3/3/1 4/4/1 2/2/1 1/1/1
f 4/7/2 6/8/2 5/6/2 2/5/2
f 6/11/3 8/12/3 7/10/3 5/9/3
f 8/15/4 3/16/4 1/14/4 7/13/4
f 11/19/5 12/20/5 10/18/5 9/17/5
f 1/23/6 2/24/6 5/22/6 7/21/6
f 9/27/7 10/28/7 4/26/7 3/25/7
f 11/31/8 9/32/8 3/30/8 8/29/8
f 10/35/9 12/36/9 6/34/9 4/33/9
f 12/39/10 11/40/10 8/38/10 6/37/10

